<svg viewBox="0 0 113 32" fill="none" xmlns="http://www.w3.org/2000/svg">
<g clip-path="url(#clip0_27_5810)">
<path d="M33.2498 8.25392V9.85945C32.327 8.66357 30.6194 7.84428 28.6387 7.84428C23.9601 7.84428 20.476 11.9767 20.476 16.8277C20.476 21.6788 23.9256 25.8112 28.6387 25.8112C30.6194 25.8112 32.327 25.025 33.2498 23.7616V25.3671H39.0897V8.25392H33.2498ZM41.1064 0.671875V25.3656H47.1519V16.2456C47.1519 14.469 48.0057 13.4112 49.3726 13.4112C50.7395 13.4112 51.4567 14.3339 51.4567 16.0415V25.3656H57.5023V14.607C57.5023 10.4401 55.2485 7.84428 51.6278 7.84428C49.6816 7.84428 48.1781 8.59601 47.1188 9.92844V0.671875H41.1078H41.1064ZM96.4028 16.8277C96.4028 21.9505 92.4746 25.8112 87.2498 25.8112C82.025 25.8112 78.0967 21.9519 78.0967 16.8277C78.0967 11.7036 82.025 7.84428 87.2498 7.84428C92.4746 7.84428 96.4028 11.7036 96.4028 16.8277ZM77.0704 16.8277C77.0704 21.9505 73.1421 25.8112 67.9173 25.8112C62.6926 25.8112 58.7643 21.9519 58.7643 16.8277C58.7643 11.7036 62.6926 7.84428 67.9173 7.84428C73.1421 7.84428 77.0704 11.7036 77.0704 16.8277ZM0.939453 8.25392L8.24841 25.5022L5.61804 31.7188H12.0387L21.7739 8.25392H15.3863L11.425 18.2953L7.49667 8.25392H0.939453ZM29.8691 20.345C27.8539 20.345 26.3174 18.8084 26.3174 16.8263C26.3174 14.8442 27.8539 13.3077 29.8691 13.3077C31.8843 13.3077 33.3878 14.8442 33.3878 16.8263C33.3878 18.8084 31.8512 20.345 29.8691 20.345ZM71.3339 16.8263C71.3339 14.9132 69.8995 13.3767 67.9188 13.3767C65.9381 13.3767 64.5036 14.9132 64.5036 16.8263C64.5036 18.7394 65.9381 20.276 67.9188 20.276C69.8995 20.276 71.3339 18.7394 71.3339 16.8263ZM90.6664 16.8263C90.6664 14.9132 89.2319 13.3767 87.2512 13.3767C85.2705 13.3767 83.8361 14.9132 83.8361 16.8263C83.8361 18.7394 85.2705 20.276 87.2512 20.276C89.2319 20.276 90.6664 18.7394 90.6664 16.8263ZM97.156 21.7449C97.156 23.8967 98.8291 25.6732 101.084 25.6732C103.34 25.6732 105.149 23.8291 105.149 21.6084C105.149 19.3877 103.476 17.6801 101.221 17.6801C98.9657 17.6801 97.156 19.5587 97.156 21.7449ZM105.761 0.671875L99.3408 16.1781H106.513L112.934 0.671875H105.761Z" fill="#3E3E3E"/>
</g>
<defs>
<clipPath id="clip0_27_5810">
<rect width="111.994" height="31.0469" fill="white" transform="translate(0.939453 0.671875)"/>
</clipPath>
</defs>
</svg>
