<svg viewBox="0 0 50 60" fill="none" xmlns="http://www.w3.org/2000/svg">
<g clip-path="url(#clip0_27_5793)">
<path d="M10.8367 11.0589V16.7189H17.8293V20.3983H10.8367V42.7424H6.86719V7.2879H17.7304V11.0589H10.8367Z" fill="#3E3E3E"/>
<path d="M13.3867 42.6434V22.562H17.448V38.9641H22.3641V42.735H13.3867V42.6434Z" fill="#3E3E3E"/>
<path d="M25.1972 37.2653C22.3649 37.2653 20.2812 35.8485 20.2812 32.6485C20.2812 32.4582 20.2812 7.28762 20.2812 7.28762H24.2508V32.5569C24.2508 33.5014 24.5333 33.7833 25.0983 33.7833C25.6634 33.7833 25.8541 33.5014 25.8541 32.5569C25.8541 31.9929 25.8541 7.19598 25.8541 7.19598H29.8237V32.5569C29.8237 35.5737 28.1214 37.2653 25.1972 37.2653Z" fill="#3E3E3E"/>
<path d="M35.3966 42.7353H31.1445L34.6408 30.668L31.526 19.9189H35.6862L37.007 25.7623L38.3279 19.9189H42.2973L38.9918 31.6126L42.2056 42.7353H38.0453L36.7245 36.61L35.3966 42.7353Z" fill="#3E3E3E"/>
<path d="M42.3887 7.2879H31.4336V11.0589H42.2968V7.2879H42.3887Z" fill="#3E3E3E"/>
<path d="M29.5403 38.8726H24.3418V42.6437H29.5403V38.8726Z" fill="#3E3E3E"/>
<path d="M42.3887 13.6033H31.4336V17.3742H42.2968V13.6033H42.3887Z" fill="#3E3E3E"/>
<path d="M49.1911 49.523H0.0664062V0.5H49.1911V49.523ZM4.03593 45.5617H45.2285V4.46131H4.03593V45.5617Z" fill="#3E3E3E"/>
<path d="M4.50917 58.1013H1.95934L1.57793 58.9471H0.0664062L2.14299 53.3857H4.21958L6.39505 58.9471H4.79169L4.50917 58.1013ZM4.12775 57.0651L3.37199 54.8942H3.08946L2.3337 57.0651H4.12775Z" fill="#3E3E3E"/>
<path d="M7.15039 56.2191C7.15039 54.4287 8.37939 53.2939 10.1734 53.2939C11.4025 53.2939 12.7233 53.8578 13.0058 55.5566H11.5861C11.3954 54.894 10.8303 54.612 10.1664 54.612C9.31878 54.612 8.56301 55.2746 8.56301 56.3107C8.56301 57.3469 9.22701 58.0094 10.1664 58.0094C10.8303 58.0094 11.3036 57.7275 11.5861 56.9733H13.0058C12.7233 58.672 11.4942 59.2359 10.1734 59.2359C8.47125 59.1372 7.15039 58.0094 7.15039 56.2191Z" fill="#3E3E3E"/>
<path d="M18.4864 58.1013H15.8378L15.5552 58.9471H14.0508L16.1274 53.3857H18.2039L20.2805 58.9471H18.769L18.4864 58.1013ZM18.1121 57.0651L17.3563 54.8942H17.0738L16.2262 57.0651H18.1121Z" fill="#3E3E3E"/>
<path d="M27.3651 56.2192C27.3651 57.8192 26.5175 58.9541 24.342 58.9541H21.6934V53.3927H24.342C26.5175 53.4844 27.3651 54.6121 27.3651 56.2192ZM25.8535 56.2192C25.8535 55.183 25.2885 54.7108 24.342 54.7108H23.2049V57.7276H24.342C25.2885 57.7276 25.8535 57.2554 25.8535 56.2192Z" fill="#3E3E3E"/>
<path d="M28.877 53.4842H33.6022V54.7107H30.2966V55.7468H33.4116V56.783H30.2966V57.8191H33.6022V58.9539H28.877V53.4842Z" fill="#3E3E3E"/>
<path d="M35.3047 53.4842H37.1976L38.4266 57.0649H38.5184L39.7474 53.4842H41.6403V58.9539H40.2206V55.9371H40.1288L39.0905 58.9539H37.9533L36.9151 55.9371H36.8232V58.9539H35.4036V53.4842H35.3047Z" fill="#3E3E3E"/>
<path d="M46.8316 57.2554V58.9541H45.32V57.1638L43.0527 53.3927H44.6561L46.0758 55.747H46.1676L47.5873 53.3927H49.1907L46.8316 57.2554Z" fill="#3E3E3E"/>
</g>
<defs>
<clipPath id="clip0_27_5793">
<rect width="49.3528" height="59.3906" fill="white" transform="translate(0.0664062 0.5)"/>
</clipPath>
</defs>
</svg>
