<svg viewBox="0 0 142 24" fill="none" xmlns="http://www.w3.org/2000/svg">
<g clip-path="url(#clip0_27_5820)">
<path d="M1.33453 11.1579C1.83792 8.59063 4.10315 6.77844 7.32482 6.77844C11.0499 6.77844 13.9192 8.33894 13.9192 13.3728V22.7358H10.7478L10.3451 20.7222C9.23769 22.0814 7.77787 22.9875 5.51263 22.9875C2.84469 22.9875 0.730469 21.3263 0.730469 18.2053C0.730469 15.0843 3.49909 13.0708 7.4255 13.0708H10.0431V12.366C10.0431 10.6042 8.7343 10.0505 7.27449 10.0505C6.16704 10.0505 5.05959 10.4028 4.5562 11.8626L1.33453 11.1579ZM6.41873 19.7155C8.18058 19.7155 10.0431 18.5073 10.0431 16.4938V16.1918H7.47584C5.81467 16.1414 4.80789 16.7958 4.80789 18.155C4.80789 18.91 5.36162 19.7155 6.41873 19.7155Z" fill="#3E3E3E"/>
<path d="M76.7428 11.1579C77.2461 8.59063 79.5114 6.77844 82.733 6.77844C86.4581 6.77844 89.3274 8.33894 89.3274 13.3728V22.7358H86.1561L85.7534 20.7222C84.6459 22.0814 83.1861 22.9875 80.9209 22.9875C78.2529 22.9875 76.1387 21.3263 76.1387 18.2053C76.1387 15.0843 78.9073 13.0708 82.8337 13.0708H85.4513V12.366C85.4513 10.6042 84.1425 10.0505 82.6827 10.0505C81.5753 10.0505 80.4678 10.4028 79.9644 11.8626L76.7428 11.1579ZM81.827 19.7155C83.5888 19.7155 85.4513 18.5073 85.4513 16.4938V16.1918H82.8841C81.2229 16.1918 80.2161 16.7958 80.2161 18.2053C80.2161 18.91 80.7698 19.7155 81.827 19.7155Z" fill="#3E3E3E"/>
<path d="M92.8496 22.7861V7.03014H96.7257V9.5974C97.8331 7.73488 99.595 6.77844 101.357 6.77844C102.061 6.77844 102.615 6.87912 103.27 7.08047L102.565 10.6545C102.112 10.3525 101.608 10.2015 100.954 10.2015C98.6889 10.2015 96.7257 12.064 96.7257 17.1482V22.7358L92.8496 22.7861Z" fill="#3E3E3E"/>
<path d="M111.525 6.77847C113.136 6.77847 114.646 7.58389 115.351 8.43964V0.6875H119.227V22.7861H115.351V21.1753C114.898 21.9807 113.488 23.0378 111.525 23.0378C106.793 23.0378 104.377 19.7658 104.377 14.9333C104.377 10.1008 106.793 6.77847 111.525 6.77847ZM112.079 19.7155C114.092 19.7155 115.703 18.0543 115.703 14.9333C115.703 11.8123 114.092 10.1512 112.079 10.1512C110.065 10.1512 108.454 11.8123 108.454 14.9333C108.454 18.0543 110.065 19.7155 112.079 19.7155Z" fill="#3E3E3E"/>
<path d="M133.221 9.29542L130.906 11.4096C130.201 10.4532 129.144 10.0505 128.288 10.0505C127.533 10.0505 126.828 10.5035 126.828 11.3593C126.828 12.064 127.382 12.5674 128.338 12.8695C130.503 13.6749 134.027 14.3293 134.027 17.702C134.027 20.5713 131.862 22.9372 128.439 22.9372C125.167 22.9372 122.952 20.6216 122.197 18.7087L125.268 17.0476C125.822 18.5577 126.879 19.6652 128.439 19.6652C129.647 19.6652 130.402 19.1114 130.402 17.9537C130.402 16.6449 128.389 16.3428 126.476 15.5374C124.764 14.8327 123.305 13.7252 123.305 11.309C123.305 8.89271 125.268 6.72815 128.338 6.72815C130.402 6.72815 132.265 7.78526 133.221 9.29542Z" fill="#3E3E3E"/>
<path d="M52.5774 7.03015L49.8088 17.8529L47.1408 7.03015H43.5165L40.8989 17.8529L38.684 11.5606L38.4323 12.3157L37.1738 16.3428L39.1873 22.7861H42.6104L45.3287 12.6177L48.0469 22.7861H51.47L56.5038 7.03015H52.5774Z" fill="#3E3E3E"/>
<path d="M71.3055 7.03015L68.4866 17.8529L65.8186 7.03015H62.1942L59.5766 17.8529L57.3617 11.5606L57.11 12.3157L55.8516 16.3428L57.8651 22.7861H61.2882L64.0064 12.6177L66.7247 22.7861H70.1477L75.1816 7.03015H71.3055Z" fill="#3E3E3E"/>
<path d="M37.8308 7.03015L32.797 22.7358H29.3739L26.6557 12.5674L23.9374 22.7861H20.5144L15.4805 7.08049H19.4069L22.2259 17.8529L24.8938 7.08049H28.4678L31.1358 17.8529L33.9548 7.08049L37.8308 7.03015Z" fill="#3E3E3E"/>
<path d="M139.061 17.7019C140.571 17.7019 141.678 18.8094 141.678 20.3195C141.678 21.8297 140.571 22.9371 139.061 22.9371C137.551 22.9371 136.443 21.8297 136.443 20.3195C136.443 18.8094 137.601 17.7019 139.061 17.7019Z" fill="#3E3E3E"/>
</g>
<defs>
<clipPath id="clip0_27_5820">
<rect width="141" height="23" fill="white" transform="translate(0.703125 0.6875)"/>
</clipPath>
</defs>
</svg>
