<svg viewBox="0 0 100 46" fill="none" xmlns="http://www.w3.org/2000/svg">
<g clip-path="url(#clip0_27_5814)">
<path d="M98.6804 1.71168C98.6224 1.63814 98.2391 1.0575 96.8262 1.00718L69.7956 0.995564C69.7956 0.995564 64.8098 0.9375 62.3479 4.64197L60.0254 8.33484H85.6006L83.4754 11.7761H57.8693L53.0655 19.1308H79.0006L76.9607 22.4714H50.9171L46.0242 30.2133H76.8445C83.0032 30.1475 85.6277 25.5992 85.6277 25.5992C85.6277 25.5992 89.8508 18.7631 89.8857 18.6934C90.5592 17.5322 91.047 16.8393 90.8224 15.9838C90.6599 15.3644 89.7695 14.9502 89.7695 14.9502C90.5437 14.8225 92.4327 14.5941 93.3927 12.9451C93.9308 12.1167 96.3346 8.07161 98.2662 4.93616C98.2546 4.94391 99.7062 2.97361 98.6804 1.71168ZM76.5736 23.1992H51.3855L47.1816 29.7991H46.752L51.1764 22.8624H76.7826L76.5736 23.1992ZM83.1232 12.4419H58.326L54.1958 18.7786H53.7467L58.0822 12.1206H83.3051L83.1232 12.4419ZM70.6162 1.58007C65.4098 1.58007 63.5363 4.25488 63.2305 4.6381C62.9247 5.02132 61.1441 7.93226 61.1441 7.93226H60.695L62.8279 4.59939C65.5724 0.9375 70.6394 1.32459 70.6394 1.32459H96.4662C96.9687 1.32058 97.4673 1.40983 97.9372 1.58782L70.6162 1.58007ZM55.8564 8.3658L60.637 0.9375H35.2359C26.9986 0.9375 23.1006 8.09871 23.1006 8.09871L14.6271 22.2044L9.29297 30.7436C14.4026 30.7436 17.7858 29.803 20.1625 28.5372C22.017 27.486 23.5741 25.9808 24.6876 24.163L28.0399 19.0883H45.072C48.3197 19.0883 50.7042 16.3593 50.7042 16.3593L54.2925 11.3271H32.7585L34.7327 8.36967L55.8564 8.3658ZM53.6809 11.7064L53.3945 12.0509H21.7573L10.5897 30.3565H10.0401L21.4244 11.6948L53.6809 11.7064ZM23.8399 8.55161L22.1444 11.3232H21.6412C21.5909 11.3232 23.3406 8.46645 23.3406 8.46645C23.3406 8.46645 26.9328 1.7891 34.5314 1.35169H59.8899L59.6499 1.73878L34.5701 1.71168C32.3675 1.91983 30.2459 2.64857 28.3803 3.83781C26.5146 5.02705 24.9584 6.64274 23.8399 8.55161Z" fill="#3E3E3E"/>
<path d="M51.7214 45.1241L52.1085 44.5551H55.4336C56.2929 44.5551 56.5949 44.4583 56.8581 44.0905C56.9471 43.9705 56.9742 43.8699 56.9394 43.7964C56.9046 43.7228 56.6839 43.5989 56.3742 43.5718L54.5278 43.3706C54.2685 43.3396 53.8117 43.2467 53.6646 42.9331C53.6274 42.8232 53.6201 42.7055 53.6433 42.5921C53.6661 42.4787 53.7192 42.373 53.7962 42.2867C54.0215 41.9596 54.3292 41.6979 54.6881 41.528C55.0469 41.3577 55.4444 41.2857 55.8401 41.319H59.231L58.8207 41.8725H55.6504C55.4204 41.8621 55.1909 41.9054 54.9803 41.9995C54.7697 42.0935 54.5843 42.2356 54.4388 42.4144C54.1601 42.8015 54.6943 42.8402 54.9575 42.8673L56.8271 43.0609C56.9808 43.0617 57.1318 43.1 57.2669 43.1728C57.402 43.2459 57.5169 43.3508 57.6013 43.4789C57.6497 43.59 57.6687 43.712 57.6567 43.8324C57.6443 43.9531 57.6013 44.0689 57.5316 44.168C57.1446 44.8918 56.6104 45.1241 55.3562 45.1241H51.7214ZM68.1225 45.1241L70.7896 41.319H73.9057C74.4592 41.319 74.8424 41.4622 75.0127 41.7409C75.0809 41.8733 75.1118 42.0215 75.1022 42.1702C75.0929 42.3188 75.0429 42.462 74.9585 42.5848C74.5405 43.3938 73.7973 43.7847 72.636 43.7847H69.756L68.8193 45.1241H68.1225ZM72.8295 43.2622C73.121 43.2602 73.4079 43.1917 73.668 43.0617C73.9285 42.9312 74.1553 42.7431 74.3315 42.5112C74.3868 42.4439 74.422 42.363 74.4336 42.2766C74.4453 42.1907 74.4329 42.1028 74.3973 42.0235C74.3353 41.9073 74.1573 41.8415 73.8786 41.8415H71.1302L70.1431 43.2622H72.8295ZM76.5805 42.4377H76.3056L76.8514 41.4157H76.2514L76.3714 41.1912H77.8114L77.6914 41.4157H77.1108L76.5805 42.4377ZM79.2901 42.4377H78.9998L79.4991 41.5009L78.5972 42.159H78.4579L78.2566 41.5551L77.7804 42.4377H77.4979L78.1598 41.1912H78.4385L78.6437 41.857L79.5688 41.1912H79.9559L79.2901 42.4377ZM1.68599 45.1241C1.05503 45.1241 0.67568 44.9925 0.524714 44.7138C0.373748 44.4351 0.524714 43.9009 1.02019 43.1654C1.92212 41.8802 2.91307 41.3074 4.23693 41.3074H7.51172L7.12463 41.8686H4.11693C3.14146 41.8686 2.41759 42.3022 1.70534 43.3202C1.45373 43.6841 1.17503 44.1215 1.27954 44.3228C1.34535 44.4544 1.59696 44.5163 2.05373 44.5163H5.28594L4.85626 45.1125L1.68599 45.1241ZM10.7865 45.1241L11.8897 43.5254H8.20849L7.1014 45.1241H6.35044L9.01751 41.3151H9.76847L8.62267 42.9564H12.3039L13.4497 41.3151H14.2123L11.5414 45.1241H10.7865ZM62.7535 45.1241L63.8606 43.5254H60.1755L59.0723 45.1241H58.3174L60.9845 41.3151H61.7355L60.5897 42.9564H64.2709L65.4206 41.3151H66.1793L63.5122 45.1241H62.7535ZM18.4316 45.1241L18.6097 44.0944H15.3968L14.1155 45.1241H13.1826L16.9761 42.0273C17.475 41.5384 18.1434 41.2609 18.8419 41.2532C18.946 41.2474 19.05 41.2648 19.1464 41.3043C19.2429 41.3437 19.3293 41.4045 19.3993 41.4815C19.4691 41.5744 19.5177 41.6817 19.5418 41.7951C19.5659 41.9089 19.5648 42.0266 19.5387 42.1396L19.078 45.1086L18.4316 45.1241ZM18.6948 43.5176L18.9193 42.1822C18.9359 42.1322 18.9421 42.0792 18.9374 42.0266C18.9328 41.9739 18.9174 41.9228 18.8922 41.8764C18.8571 41.847 18.8163 41.8249 18.7724 41.8117C18.7285 41.7982 18.6824 41.7939 18.6368 41.799C18.2669 41.8319 17.9204 41.9937 17.6574 42.2557L16.109 43.5176H18.6948ZM25.7089 45.1241L27.7721 42.1899L24.3696 44.2918H23.8664L23.1928 42.0041L21.0174 45.1009H20.2819L22.949 41.2957H23.3361C23.5567 41.2957 23.7231 41.4428 23.7735 41.7332L24.3309 43.626L27.7567 41.5009C27.9849 41.3488 28.2572 41.2764 28.5308 41.2957H29.1115L26.4444 45.1009L25.7089 45.1241ZM28.1631 45.1241L30.8302 41.319H33.9269C34.4804 41.319 34.8637 41.4622 35.034 41.7409C35.102 41.8733 35.1329 42.0215 35.1233 42.1702C35.1138 42.3188 35.0642 42.462 34.9798 42.5848C34.5617 43.3938 33.8185 43.7847 32.6572 43.7847H29.8082L28.8715 45.1241H28.1631ZM32.8701 43.2622C33.1613 43.2602 33.4481 43.1917 33.7085 43.0617C33.9689 42.9312 34.196 42.7431 34.3721 42.5112C34.4272 42.4439 34.4626 42.363 34.4742 42.2766C34.4858 42.1907 34.4732 42.1028 34.4379 42.0235C34.3759 41.9073 34.194 41.8415 33.9192 41.8415H31.1708L30.176 43.2622H32.8701ZM34.9217 45.1241L37.5888 41.3151H38.3127L35.6456 45.1241H34.9217ZM65.3393 45.1241L68.0064 41.3151H68.7264L66.0632 45.1241H65.3393ZM40.1976 45.1744C39.0714 45.1744 38.4791 45.008 38.2856 44.6325C38.092 44.257 38.2507 43.8583 38.7152 43.177C39.8222 41.5938 41.1576 41.2686 42.8221 41.2686C43.7937 41.2686 44.3937 41.4699 44.6066 41.8648C44.7924 42.2015 44.6879 42.6738 44.3047 43.2622C43.1434 45.035 41.8776 45.1744 40.1976 45.1744ZM42.5473 41.8222C41.1693 41.8222 40.2944 42.0467 39.346 43.2699C38.9591 43.7693 38.8198 44.106 38.9127 44.2996C39.0559 44.5899 39.7796 44.6286 40.4609 44.6286C41.897 44.6286 42.7834 44.4041 43.6466 43.177C43.9912 42.6815 44.1112 42.3448 44.0066 42.1473C43.8557 41.8609 43.1783 41.8222 42.5357 41.8222M49.7395 45.1241C48.9188 45.1241 48.6092 44.737 48.373 43.3435C48.1369 41.9499 48.0518 41.8919 47.6337 41.8919H47.6105L45.346 45.1241H44.6144L47.2814 41.319H47.6685C48.4427 41.319 48.7756 41.7796 48.9692 43.088C49.1859 44.5241 49.3563 44.5241 49.7433 44.5241H49.7666L52.0156 41.319H52.7898L50.1227 45.1241H49.7395Z" fill="#3E3E3E"/>
<path d="M41.7502 34.5526H38.2431L35.4096 38.9306H36.5708L37.5386 37.421H40.0238C40.7554 37.421 40.3644 38.0132 40.3644 38.0132L39.7605 38.9229H40.9024L41.4444 38.0984C41.8586 37.4558 41.3399 37.1384 41.3399 37.1384C41.8818 36.9603 42.4392 36.8248 42.776 36.0429C43.3915 34.6184 41.7502 34.5487 41.7502 34.5487M41.847 35.9423C41.6457 36.5616 40.7747 36.55 40.7747 36.55H38.096L38.8702 35.3887H41.3437C41.3437 35.3887 42.0134 35.3887 41.8431 35.9345M18.1375 34.5526C17.4175 34.5526 17.0072 34.8391 16.3917 35.381L12.2963 38.9655H13.5234L14.7621 37.8893H17.7582L17.5956 38.9655H18.5323L19.0085 35.6016C19.0361 35.4733 19.0341 35.3403 19.0029 35.2128C18.9716 35.0853 18.9117 34.9665 18.8278 34.8655C18.744 34.7645 18.6383 34.6838 18.5187 34.6296C18.3991 34.5754 18.2688 34.5491 18.1375 34.5526ZM18.0756 35.679L17.8859 37.0842H15.6833L17.3053 35.679C17.5143 35.4971 17.6498 35.381 17.8356 35.381C18.0214 35.381 18.1065 35.4971 18.0756 35.679ZM13.1169 34.6184L10.2873 38.9655H11.3827L14.2124 34.6184H13.1169ZM6.81892 36.55C7.39569 35.6558 7.72472 35.5203 8.72729 35.5203H11.5298L12.1105 34.6145H8.95567C7.44988 34.6145 6.77247 34.8197 5.80861 36.3061L4.09766 38.9655H5.23959L6.21506 37.4635H10.086L10.6124 36.6545H6.74151L6.81892 36.55ZM69.5705 34.4907C68.8428 34.4907 68.4325 34.7771 67.8131 35.3229L63.6828 38.9345H64.9254L66.168 37.8506H69.1912L69.0247 38.9345H69.9692L70.4453 35.5436C70.4736 35.4146 70.472 35.2808 70.4411 35.1526C70.4097 35.0242 70.3497 34.9047 70.2653 34.8032C70.181 34.7016 70.0745 34.6207 69.9541 34.5665C69.8337 34.5123 69.7025 34.4864 69.5705 34.4907ZM69.5086 35.6249L69.3073 37.0377H67.097L68.7305 35.6249C68.9434 35.439 69.0789 35.3229 69.2647 35.3229C69.4505 35.3229 69.5395 35.439 69.5086 35.6249ZM59.3784 37.1229L61.0351 34.5526H59.9319L58.2635 37.1229C57.4584 38.3384 58.1668 38.9345 59.5022 38.9345H62.6687L63.2261 38.0635H59.8313C58.9371 38.0635 58.9061 37.839 59.3784 37.1229ZM57.5706 34.5526L56.0881 36.8364C55.3991 37.8893 54.7333 38.1293 53.4636 38.1293C52.1939 38.1293 51.9152 37.8893 52.5849 36.8364L54.0675 34.5526H53.003L51.5204 36.8364C50.4869 38.4274 51.2533 39.0235 53.1694 39.0235C55.4378 39.0235 56.1616 38.4274 57.1952 36.8364L58.6777 34.5526H57.5706ZM79.4801 35.5397C79.5459 35.0481 79.2517 34.5526 78.3188 34.5526H75.3924L74.7885 35.4158H77.8853C78.2336 35.4158 78.4001 35.5939 78.3459 35.8029C78.2724 36.0932 77.9975 36.2829 77.3472 36.2829H74.3317L73.7976 37.1035H76.9678C77.3278 37.1035 77.444 37.3474 77.3898 37.5332C77.3201 37.7848 77.0646 38.0364 76.3485 38.0364H73.0582L72.4814 38.9345H76.155C77.8853 38.9345 78.3652 38.0558 78.4233 37.421C78.4458 37.2873 78.4229 37.1499 78.3587 37.0306C78.294 36.9114 78.1914 36.8171 78.0672 36.7629C78.9227 36.6274 79.391 36.1165 79.4685 35.5397M50.4985 34.5526C50.1934 34.5765 49.9035 34.6957 49.6701 34.8932L46.7708 37.1268L46.3372 34.8932C46.3372 34.7268 46.283 34.5526 45.9501 34.5526H45.1372L42.2882 38.9345H43.4495L45.5592 35.6984L46.0082 38.021H46.8714L49.9333 35.6984L47.8198 38.9384H48.9811L51.8339 34.5565L50.4985 34.5526ZM23.882 36.4881C24.4626 35.5861 24.7955 35.4507 25.8174 35.4507H28.86L29.4445 34.5526H26.0381C24.5168 34.5526 23.8355 34.7616 22.86 36.2597L21.1413 38.9345H22.3026L23.282 37.421H27.4084L27.9503 36.6081H23.8045L23.882 36.4881ZM35.5605 35.23C35.0999 34.5178 34.047 34.4249 33.0754 34.4249C31.6548 34.4249 30.7025 34.7887 29.9167 35.532C29.4355 35.9833 29.1033 36.5708 28.9645 37.2158C28.9327 37.3972 28.9394 37.5833 28.984 37.762C29.0287 37.9407 29.1104 38.1081 29.2238 38.2532C29.638 38.7951 30.5012 39.0661 31.6974 39.0661C33.6793 39.0661 34.9838 38.3577 35.5992 36.8945C35.734 36.6364 35.8011 36.3484 35.7943 36.0573C35.7876 35.7662 35.7071 35.4816 35.5605 35.23ZM31.6664 38.1526C31.3957 38.1559 31.1252 38.1378 30.8574 38.0984H30.7916L30.6096 38.0635C29.8354 37.8545 29.9361 37.2893 29.9941 37.1035C30.1137 36.7728 30.2994 36.4699 30.5399 36.2132C30.9657 35.7874 31.6006 35.3229 33.1025 35.3229C33.361 35.3204 33.6195 35.3321 33.8767 35.3578C33.8767 35.3578 35.0728 35.4661 34.8018 36.3681C34.7851 36.4194 34.7657 36.4698 34.7438 36.519C34.4225 37.2932 33.7838 38.168 31.6703 38.168" fill="#3E3E3E"/>
</g>
<defs>
<clipPath id="clip0_27_5814">
<rect width="98.7086" height="44.5156" fill="white" transform="translate(0.466797 0.9375)"/>
</clipPath>
</defs>
</svg>
