<svg  viewBox="0 0 54 173" fill="none" xmlns="http://www.w3.org/2000/svg">
<g clip-path="url(#clip0_27_5928)">
<path d="M0.9375 0.960938H54.0019V172.319H0.9375V0.960938Z" fill="black"/>
<path d="M20.9787 154.626V152.726H24.8656V148.633H20.9787V146.733H31.2067V148.633H26.6181V152.726H31.2067V154.626H20.9787ZM30.8268 143.197C30.4959 143.762 30.0431 144.194 29.4682 144.491C28.8934 144.788 28.2466 144.937 27.5248 144.937C26.804 144.937 26.1562 144.788 25.5824 144.491C25.014 144.199 24.5419 143.75 24.2228 143.197C23.8919 142.633 23.7259 141.965 23.7259 141.195C23.7259 140.425 23.8919 139.757 24.2228 139.193C24.5419 138.639 25.014 138.19 25.5824 137.899C26.1562 137.602 26.805 137.454 27.5248 137.454C28.2476 137.454 28.8934 137.602 29.4682 137.899C30.0365 138.19 30.5084 138.639 30.8268 139.193C31.1577 139.757 31.3237 140.425 31.3237 141.195C31.3237 141.965 31.1577 142.633 30.8268 143.197ZM29.1243 139.85C28.6895 139.52 28.1576 139.354 27.5238 139.354C26.891 139.354 26.3581 139.52 25.9233 139.85C25.4904 140.182 25.2745 140.63 25.2745 141.196C25.2745 141.76 25.4914 142.209 25.9233 142.541C26.3581 142.872 26.891 143.038 27.5238 143.038C28.1576 143.038 28.6895 142.872 29.1243 142.541C29.5592 142.209 29.7731 141.761 29.7731 141.196C29.7741 140.63 29.5592 140.182 29.1243 139.85ZM23.8419 135.813V134H25.0275C24.6435 133.734 24.3196 133.39 24.0768 132.991C23.8443 132.608 23.7225 132.168 23.7249 131.72C23.7249 131.038 23.9149 130.491 24.2947 130.075C24.6756 129.662 25.2265 129.454 25.9463 129.454H31.2067V131.266H26.4871C26.0682 131.266 25.7603 131.362 25.5664 131.551C25.3714 131.741 25.2745 131.998 25.2745 132.32C25.2745 132.622 25.3894 132.9 25.6244 133.153C25.8583 133.407 26.2012 133.611 26.6541 133.766C27.1079 133.922 27.6468 134 28.2696 134H31.2067V135.813H23.8419ZM30.8268 126.097C30.5081 126.65 30.0363 127.099 29.4682 127.391C28.8934 127.688 28.2466 127.836 27.5248 127.836C26.804 127.836 26.1562 127.688 25.5824 127.391C25.0142 127.099 24.5422 126.65 24.2228 126.097C23.8919 125.532 23.7259 124.865 23.7259 124.095C23.7259 123.324 23.8919 122.657 24.2228 122.092C24.5419 121.539 25.0141 121.09 25.5824 120.799C26.1562 120.502 26.805 120.353 27.5248 120.353C28.2476 120.353 28.8934 120.502 29.4682 120.799C30.0431 121.096 30.4959 121.527 30.8268 122.092C31.1577 122.657 31.3237 123.324 31.3237 124.095C31.3247 124.864 31.1577 125.531 30.8268 126.097ZM29.1243 122.75C28.6895 122.419 28.1576 122.253 27.5238 122.253C26.891 122.253 26.3581 122.419 25.9233 122.75C25.4904 123.081 25.2745 123.528 25.2745 124.095C25.2745 124.659 25.4914 125.108 25.9233 125.439C26.3581 125.771 26.891 125.937 27.5238 125.937C28.1576 125.937 28.6895 125.771 29.1243 125.439C29.5592 125.108 29.7731 124.66 29.7731 124.095C29.7741 123.528 29.5592 123.081 29.1243 122.75ZM23.8419 118.711V116.899H25.0405C24.6217 116.634 24.2987 116.313 24.0688 115.933C23.8389 115.553 23.7239 115.149 23.7239 114.72C23.7239 114.448 23.7739 114.151 23.8699 113.828L25.5514 114.164C25.4133 114.393 25.3423 114.656 25.3464 114.924C25.3464 115.5 25.6074 115.972 26.1292 116.342C26.6501 116.712 27.4708 116.899 28.5895 116.899H31.2057V118.711H23.8419ZM30.7409 112.213C30.35 112.724 29.8841 113.064 29.3383 113.229L28.5625 111.783C28.9434 111.645 29.2423 111.454 29.4552 111.206C29.6702 110.957 29.7761 110.662 29.7761 110.321C29.7847 110.09 29.7263 109.861 29.6082 109.663C29.4962 109.488 29.3143 109.4 29.0603 109.4C28.8354 109.4 28.6545 109.505 28.5125 109.713C28.3706 109.923 28.2216 110.247 28.0666 110.686C28.0476 110.754 28.0087 110.856 27.9497 110.993C27.7257 111.558 27.4438 111.997 27.1019 112.308C26.762 112.621 26.3232 112.775 25.7883 112.775C25.4074 112.775 25.0615 112.673 24.7496 112.469C24.4328 112.258 24.1764 111.969 24.0058 111.629C23.8152 111.255 23.7195 110.841 23.7269 110.422C23.7269 109.925 23.8319 109.473 24.0408 109.063C24.2518 108.655 24.5467 108.338 24.9266 108.114L25.9193 109.196C25.4894 109.488 25.2755 109.882 25.2755 110.38C25.2714 110.56 25.3254 110.737 25.4294 110.884C25.473 110.95 25.5326 111.004 25.6027 111.041C25.6727 111.078 25.751 111.097 25.8303 111.096C26.0062 111.096 26.1682 110.993 26.3202 110.789C26.4701 110.584 26.6541 110.185 26.867 109.59C27.0719 109.026 27.3409 108.589 27.6718 108.282C28.0037 107.974 28.4275 107.822 28.9424 107.822C29.6632 107.822 30.241 108.051 30.6739 108.509C31.1067 108.967 31.3237 109.566 31.3237 110.306C31.3247 111.065 31.1297 111.702 30.7409 112.213ZM36.4082 17.9669L31.6276 32.9359H28.3626L25.7793 23.2539L23.1961 32.9359H19.929L15.1484 17.9669H18.8603L21.5326 28.2429L24.0568 17.9669H27.5008L30.0241 28.2429L32.6973 17.9669H36.4082ZM38.9045 28.1239C40.33 28.1239 41.3997 29.1919 41.3997 30.6189C41.3997 32.0439 40.33 33.1139 38.9045 33.1139C37.4799 33.1139 36.4112 32.0439 36.4112 30.6189C36.4102 29.1919 37.4799 28.1239 38.9045 28.1239Z" fill="white"/>
</g>
<defs>
<clipPath id="clip0_27_5928">
<rect width="53.0625" height="171.344" fill="white" transform="translate(0.9375 0.960938)"/>
</clipPath>
</defs>
</svg>
