<svg width="145" height="35" viewBox="0 0 145 35" fill="none" xmlns="http://www.w3.org/2000/svg">
<g clip-path="url(#clip0_27_5727)">
<path d="M17.8525 10.5103L14.1419 14.2209L3.74818 3.82715L0.212891 7.36246L10.6066 17.7562L0.212891 28.1499L3.74818 31.6852L14.1419 21.2907L24.5356 31.6845L28.0709 28.1492L17.6772 17.7562L21.3878 14.0448C19.8292 13.3207 18.577 12.0687 17.8525 10.5103Z" fill="#3E3E3E"/>
<path d="M24.4383 0.203125C23.2198 0.203528 22.0211 0.510649 20.9525 1.09618C19.8839 1.68171 18.9799 2.52681 18.3238 3.55358C17.6677 4.58036 17.2806 5.75577 17.1983 6.97147C17.1159 8.18716 17.3408 9.40408 17.8524 10.51L24.5355 3.8268L28.0708 7.36208L21.3884 14.0445C22.3735 14.5009 23.4484 14.7305 24.534 14.7164C25.6197 14.7022 26.6882 14.4446 27.661 13.9626C28.6339 13.4806 29.4861 12.7865 30.1551 11.9313C30.824 11.0762 31.2925 10.0819 31.5262 9.02163C31.7598 7.96138 31.7525 6.86222 31.5049 5.80514C31.2573 4.74806 30.7758 3.76001 30.0956 2.91378C29.4155 2.06755 28.5541 1.38472 27.575 0.915585C26.5959 0.446458 25.524 0.20299 24.4383 0.203125Z" fill="#3E3E3E"/>
<path d="M45.2807 7.83127H51.2782V12.9596H53.6365V0.550781H51.2782V5.72114H45.2807V0.550781H42.9238V12.9596H45.2807V7.83127Z" fill="#3E3E3E"/>
<path d="M60.4389 2.99023C57.4192 2.99023 55.4961 4.87278 55.4961 8.07734C55.4961 11.2628 57.3161 13.2278 60.4389 13.2278C63.5205 13.2278 65.3404 11.2628 65.3404 8.07734C65.3404 4.87352 63.4174 2.99023 60.4389 2.99023ZM60.4183 11.3033C58.5571 11.3033 57.7292 10.0637 57.7292 8.05677C57.7292 6.04973 58.619 4.87278 60.4183 4.87278C62.2176 4.87278 63.1272 6.05121 63.1272 8.05677C63.1272 10.0623 62.2588 11.304 60.4183 11.304V11.3033Z" fill="#3E3E3E"/>
<path d="M75.803 12.9593V3.2373H73.5692V8.73835C73.5692 10.2063 72.597 11.1998 71.0879 11.1998C69.7626 11.1998 69.247 10.33 69.247 9.15226V3.24025H67.0137V9.7334C67.0137 11.8428 67.9859 13.2289 70.0334 13.2289C71.6467 13.2289 72.8877 12.1978 73.4211 10.3948H73.6282V12.9593H75.803Z" fill="#3E3E3E"/>
<path d="M82.2142 7.23114C80.3733 6.90041 79.9599 6.42094 79.9599 5.74187C79.9599 5.01787 80.5386 4.58406 81.676 4.58406C82.8347 4.58406 83.4134 5.03849 83.6822 6.23755L85.6883 5.80447C85.2954 4.08691 84.3856 2.99023 81.7179 2.99023C79.1324 2.99023 77.8502 4.1068 77.8502 5.86266C77.8502 7.47563 78.7608 8.34549 81.3456 8.86101C83.2694 9.21308 83.807 9.58503 83.807 10.351C83.807 11.1781 83.1865 11.5921 82.0072 11.5921C80.4357 11.5921 79.7529 10.8474 79.443 9.66902L77.4375 10.0814C77.7885 11.9426 78.8218 13.2256 81.9661 13.2256C84.7586 13.2256 85.9571 12.0671 85.9571 10.2685C85.9571 8.74096 85.0884 7.76805 82.2142 7.23114Z" fill="#3E3E3E"/>
<path d="M88.2304 10.0014C88.2304 11.8214 89.1396 13.2281 91.2705 13.2281C92.242 13.2281 92.7384 13.1037 93.4624 12.8761L93.1943 10.8911C92.7178 11.0385 92.2838 11.1387 91.7867 11.1387C90.8152 11.1387 90.4608 10.643 90.4608 9.69062V5.03804H93.315V3.23946H90.4608V0.612305H88.2277V3.23946H86.8633V5.03804H88.2277L88.2304 10.0014Z" fill="#3E3E3E"/>
<path d="M104.32 8.07734C104.32 4.87277 102.397 2.99023 99.4187 2.99023C96.3985 2.99023 94.4746 4.87277 94.4746 8.07734C94.4746 11.2628 96.295 13.2278 99.4187 13.2278C102.501 13.2271 104.32 11.2628 104.32 8.07734ZM96.7091 8.05678C96.7091 6.05121 97.5983 4.87278 99.3981 4.87278C101.197 4.87278 102.107 6.05121 102.107 8.05678C102.107 10.0623 101.238 11.3033 99.3981 11.3033C97.5359 11.3033 96.7091 10.0637 96.7091 8.05678Z" fill="#3E3E3E"/>
<path d="M108.29 7.4572C108.29 5.98934 109.283 4.99578 110.772 4.99578C112.115 4.99578 112.633 5.86487 112.633 7.04329V12.9582H114.842V6.46439C114.842 4.35574 113.87 2.99023 111.844 2.99023C110.209 2.99023 108.972 4.00368 108.431 5.80374H108.244V3.23918H106.072V12.9612H108.287L108.29 7.4572Z" fill="#3E3E3E"/>
<path d="M42.9238 31.3405H51.8578V29.293H45.2807V26.067H51.2583V24.0402H45.2807V20.9799H51.8784V18.9316H42.9238V31.3405Z" fill="#3E3E3E"/>
<path d="M62.6316 21.8482V21.6221H60.2947L58.1853 25.6332H57.9371L55.6825 21.6221H53.16V21.8482L56.2622 26.2953L53.1387 31.1136V31.3412H55.5795L57.6683 27.2462H57.9577L60.2122 31.3412H62.7141V31.1136L59.6119 26.6062L62.6316 21.8482Z" fill="#3E3E3E"/>
<path d="M69.9516 21.3721C68.1941 21.3721 67.1181 22.468 66.601 24.1443H66.4537V21.624H64.2441V34.4843H66.4537V28.7564H66.601C67.0768 30.4504 68.214 31.6104 69.9893 31.6104C72.1819 31.6104 73.5243 29.8103 73.5243 26.5019C73.5243 23.1935 72.247 21.3721 69.9516 21.3721ZM68.9382 29.6454C67.4487 29.6454 66.4567 28.5288 66.4567 26.8945V26.1498C66.4567 24.4559 67.4289 23.3783 68.9608 23.3783C70.5947 23.3783 71.3393 24.3918 71.3393 26.5019C71.3379 28.5899 70.572 29.6454 68.9382 29.6454Z" fill="#3E3E3E"/>
<path d="M79.6712 21.3721C76.651 21.3721 74.7285 23.2553 74.7285 26.46C74.7285 29.6454 76.5482 31.6104 79.6712 31.6104C82.7524 31.6104 84.5727 29.6454 84.5727 26.46C84.5727 23.2553 82.6495 21.3721 79.6712 21.3721ZM79.6506 29.6859C77.7891 29.6859 76.9616 28.4464 76.9616 26.4393C76.9616 24.4323 77.8509 23.2553 79.6506 23.2553C81.4497 23.2553 82.3595 24.4338 82.3595 26.4393C82.3595 28.4448 81.4908 29.6859 79.6506 29.6859Z" fill="#3E3E3E"/>
<path d="M92.0977 21.3721C90.4638 21.3721 89.2256 22.3855 88.6853 24.1855H88.4995V21.624H86.3281V31.346H88.5413V25.8398C88.5413 24.3719 89.5334 23.3783 91.0226 23.3783C92.3671 23.3783 92.8834 24.2474 92.8834 25.4258V31.3409H95.0966V24.847C95.0966 22.7376 94.1244 21.3721 92.0977 21.3721Z" fill="#3E3E3E"/>
<path d="M101.652 21.3721C98.6115 21.3721 96.75 23.3165 96.75 26.605C96.75 29.8524 98.6732 31.589 101.652 31.589C104.258 31.589 105.481 30.39 105.933 28.6319L104.034 28.0935C103.765 29.0245 103.224 29.7699 101.677 29.7699C100.022 29.7699 99.1332 28.8794 98.968 27.1184H105.979C106.02 26.6227 106.02 26.1882 106.02 25.8147C106.016 23.1515 104.588 21.3721 101.652 21.3721ZM98.9838 25.6328C99.1901 23.8954 100.08 23.0889 101.591 23.0889C103.141 23.0889 103.885 23.958 103.968 25.6328H98.9838Z" fill="#3E3E3E"/>
<path d="M113.585 21.3721C111.951 21.3721 110.713 22.3855 110.173 24.1855H109.987V21.624H107.814V31.346H110.024V25.8398C110.024 24.3719 111.017 23.3783 112.507 23.3783C113.851 23.3783 114.368 24.2474 114.368 25.4258V31.3409H116.581V24.847C116.584 22.7376 115.611 21.3721 113.585 21.3721Z" fill="#3E3E3E"/>
<path d="M122.91 29.5215C121.939 29.5215 121.585 29.0251 121.585 28.0735V23.4208H124.439V21.6245H121.585V18.9951H119.355V21.6245H117.99V23.4238H119.355V28.3865C119.355 30.2064 120.264 31.6139 122.395 31.6139C123.367 31.6139 123.863 31.4894 124.587 31.2618L124.319 29.2769C123.841 29.4183 123.405 29.5215 122.91 29.5215Z" fill="#3E3E3E"/>
<path d="M128.618 18.167H126.197V19.9655H128.618V18.167Z" fill="#3E3E3E"/>
<path d="M128.515 21.6221H126.281V31.3419H128.515V21.6221Z" fill="#3E3E3E"/>
<path d="M135.008 21.3936C132.527 21.3936 131.14 22.572 130.768 24.4133L132.878 24.8898C133.127 23.7512 133.79 23.1708 134.925 23.1708C136.291 23.1708 136.808 23.8948 136.808 25.1594V25.8223H133.912C131.45 25.8223 130.396 27.0847 130.396 28.8214C130.396 30.7238 131.617 31.5516 133.354 31.5516C135.07 31.5516 136.187 30.6008 136.684 29.0283H136.911V31.3447H139.02V25.1366C139.02 22.7171 137.821 21.3936 135.008 21.3936ZM136.81 27.6805C136.81 28.9002 135.779 29.8105 134.224 29.8105C132.963 29.8105 132.53 29.211 132.53 28.5076C132.53 27.7011 133.171 27.2872 134.287 27.2872H136.81V27.6805Z" fill="#3E3E3E"/>
<path d="M143.568 18.0645H141.334V31.3409H143.568V18.0645Z" fill="#3E3E3E"/>
</g>
<defs>
<clipPath id="clip0_27_5727">
<rect width="143.981" height="34.2812" fill="white" transform="translate(0.212891 0.203125)"/>
</clipPath>
</defs>
</svg>
