<svg viewBox="0 0 125 39" fill="none" xmlns="http://www.w3.org/2000/svg">
<g clip-path="url(#clip0_27_5703)">
<path d="M50.1406 15.5984V9.8949H46.3055V15.5984H41.6182V0.421875H46.3055V6.51871H50.1406V0.421875H54.828V15.5984H50.1406Z" fill="#3E3E3E"/>
<path d="M66.5623 15.074C65.7428 15.5328 64.7267 15.7951 63.1861 15.7951C57.4498 15.7951 56.1387 12.9761 56.1387 8.19039V0.421875H60.826V8.19039C60.826 12.1566 61.7766 12.4189 63.0878 12.4189C63.9072 12.3861 64.4973 12.3205 64.9234 12.1238C65.6446 11.665 65.9068 10.5833 65.9068 8.19039V0.421875H69.2501V8.19039C69.2501 10.4849 69.2502 13.6645 66.5623 15.074Z" fill="#3E3E3E"/>
<path d="M80.6893 15.5984L73.904 6.81372V15.5984H70.5605V0.421875H74.5596L79.8367 7.20706V0.421875H83.213V15.5984H80.6893Z" fill="#3E3E3E"/>
<path d="M93.0807 15.5984H88.3938V3.7653H84.5586V0.421875H96.981V3.7653H93.1133V15.5984H93.0807Z" fill="#3E3E3E"/>
<path d="M107.93 15.5984H98.2598V0.421875H109.306L107.962 3.7653H102.948V6.55149H107.111L105.799 9.8949H102.948V12.2222H109.274L107.93 15.5984Z" fill="#3E3E3E"/>
<path d="M117.106 0.421875C119.401 0.421875 120.843 1.3069 121.663 2.02803C122.744 3.04417 123.368 4.3881 123.368 5.79758C123.368 7.17428 122.81 8.48547 121.762 9.40325C121.531 9.5999 121.302 9.76383 121.073 9.92768L124.023 15.5656H118.877L116.386 10.8783H115.271V15.5984H110.584V0.421875H117.106ZM118.581 7.07595C118.844 6.78094 119.008 6.32204 119.008 5.86314C119.008 4.19142 117.762 3.7653 117.106 3.7653H115.271V7.53485H117.402C117.959 7.53485 118.352 7.40373 118.581 7.07595Z" fill="#3E3E3E"/>
<path d="M51.4845 35.0686H46.7972V28.7423L41.6182 19.9248H46.7317L49.5834 25.2677L52.4679 19.9248H56.3031L51.5173 28.775V35.0686H51.4845Z" fill="#3E3E3E"/>
<path d="M67.2518 35.069H57.582V19.8926H68.6284L67.2846 23.2359H62.2694V26.0222H66.4323L65.1211 29.3656H62.2694V31.6929H68.5957L67.2518 35.069Z" fill="#3E3E3E"/>
<path d="M79.9691 32.3152H73.6753L72.3642 35.1013H68.6602L75.8059 19.9248H79.3134L86.328 35.1013H81.2798L79.9691 32.3152ZM75.2159 28.939H78.3957L76.8223 25.5627L75.2159 28.939Z" fill="#3E3E3E"/>
<path d="M97.7363 35.069L90.9504 26.2844V35.069H87.6074V19.8926H91.6061L96.8837 26.6777V19.8926H100.26V35.069H97.7363Z" fill="#3E3E3E"/>
<path d="M111.437 35.0686H106.749V28.7423L101.57 19.9248H106.684L109.536 25.2677L112.42 19.9248H116.255L111.47 28.775V35.0686H111.437Z" fill="#3E3E3E"/>
<path d="M32.4409 0.421875V3.56862H29.2941V35.1345H7.20126V38.2812H4.05451V25.6614H19.821V16.1884H13.4948V22.5147H4.05451V3.56862H0.875V0.421875H13.4948V6.71538H19.821V0.421875H32.4409Z" fill="#3E3E3E"/>
</g>
<defs>
<clipPath id="clip0_27_5703">
<rect width="123.422" height="37.8594" fill="white" transform="translate(0.875 0.421875)"/>
</clipPath>
</defs>
</svg>
