<svg width="135" height="30" viewBox="0 0 135 30" fill="none" xmlns="http://www.w3.org/2000/svg">
<g clip-path="url(#clip0_27_5751)">
<path d="M40.6106 0.868756L29.5962 16.7537V6.9314H29.6157C29.6159 5.60444 29.18 4.31375 28.3743 3.25579C27.5686 2.19783 26.4373 1.43056 25.1525 1.07079C23.8677 0.711015 22.4999 0.778439 21.2572 1.2628C20.0145 1.74716 18.9651 2.62191 18.2686 3.75391L0.482422 29.4023H10.3995L21.4309 13.4958V23.2839C21.4308 24.606 21.8638 25.8921 22.6641 26.9479C23.4644 28.0038 24.5887 28.7719 25.867 29.1363C27.1454 29.5006 28.5083 29.4414 29.7498 28.9676C30.9913 28.4937 32.0439 27.631 32.7485 26.5097L50.5277 0.868756H40.6106Z" fill="#3E3E3E"/>
<path d="M120.398 0.868164H112.232V29.4031H120.398V0.868164Z" fill="#3E3E3E"/>
<path d="M57.4809 29.4029L58.3675 28.1236L62.9387 21.5285V6.9314H62.9581C62.9583 5.60445 62.5224 4.31375 61.7167 3.2558C60.911 2.19784 59.7797 1.43056 58.4949 1.07079C57.2101 0.711015 55.8423 0.778439 54.5996 1.2628C53.3569 1.74716 52.3075 2.62191 51.611 3.75392L33.832 29.4026H43.7481L54.7733 13.4972V29.4026L57.4809 29.4029Z" fill="#3E3E3E"/>
<path d="M109.7 29.4029V6.93113H109.719C109.72 5.60417 109.284 4.31348 108.478 3.25552C107.672 2.19756 106.541 1.4303 105.256 1.07052C103.971 0.710749 102.604 0.778173 101.361 1.26253C100.118 1.74689 99.069 2.62164 98.3723 3.75364L89.3399 16.7802V6.93113H89.3592C89.3599 5.60393 88.9235 4.31296 88.1182 3.25481C87.3121 2.19666 86.1804 1.42931 84.8954 1.06962C83.6105 0.70993 82.2423 0.777604 80.9998 1.26234C79.7565 1.74707 78.7073 2.62231 78.0113 3.75476L60.2324 29.4029H70.1484L81.1738 13.4975V23.2833H81.1931C81.1924 24.6058 81.6251 25.8925 82.4252 26.9489C83.2261 28.0052 84.3504 28.7738 85.6294 29.1382C86.9083 29.5028 88.2713 29.4433 89.5131 28.969C90.7549 28.4947 91.8078 27.6314 92.512 26.5094L101.535 13.4956V29.4026L109.7 29.4029Z" fill="#3E3E3E"/>
<path d="M131.802 7.46668H131.199V5.51294C131.199 5.37639 131.144 5.24542 131.047 5.14885C130.95 5.0523 130.818 4.99805 130.68 4.99805C130.543 4.99805 130.411 5.0523 130.315 5.14885C130.217 5.24542 130.162 5.37639 130.162 5.51294V7.98061C130.162 8.04823 130.175 8.1152 130.202 8.17769C130.228 8.24017 130.266 8.29698 130.314 8.34479C130.362 8.3926 130.419 8.43052 130.482 8.4564C130.545 8.48228 130.612 8.49566 130.68 8.49566H131.802C131.939 8.49566 132.071 8.44138 132.168 8.34479C132.265 8.2482 132.32 8.11721 132.32 7.98061C132.32 7.84402 132.265 7.71301 132.168 7.61643C132.071 7.51984 131.939 7.46557 131.802 7.46557V7.46668Z" fill="#3E3E3E"/>
<path d="M129.067 4.87012C128.934 4.87028 128.803 4.90432 128.687 4.96899C128.571 5.03366 128.474 5.1268 128.405 5.23954L127.258 6.89211V5.6924C127.26 5.67601 127.261 5.65933 127.261 5.64239C127.261 5.4741 127.205 5.31043 127.104 5.1763C127.001 5.04215 126.857 4.94489 126.695 4.89928C126.532 4.85368 126.358 4.86224 126.201 4.92366C126.043 4.98508 125.91 5.096 125.822 5.23954L124.123 7.68952C124.083 7.74513 124.054 7.80817 124.038 7.87496C124.023 7.94175 124.021 8.01094 124.033 8.07848C124.045 8.146 124.07 8.21051 124.108 8.26823C124.144 8.32591 124.193 8.37573 124.25 8.41462C124.306 8.45351 124.37 8.48073 124.438 8.49471C124.505 8.50869 124.575 8.50913 124.642 8.49605C124.71 8.48296 124.775 8.45656 124.832 8.41842C124.889 8.38027 124.938 8.33112 124.976 8.2739L126.222 6.47571V7.71714C126.222 7.74649 126.225 7.77579 126.23 7.80473C126.248 7.96395 126.316 8.11358 126.424 8.2329C126.531 8.35224 126.674 8.4353 126.831 8.47062C126.988 8.50601 127.153 8.49181 127.301 8.43016C127.45 8.36845 127.576 8.26228 127.661 8.12635L128.806 6.47544V7.97466C128.806 8.11125 128.861 8.24225 128.957 8.33885C129.055 8.43544 129.186 8.48973 129.324 8.48973C129.461 8.48973 129.593 8.43544 129.69 8.33885C129.787 8.24225 129.842 8.11125 129.842 7.97466V5.69268C129.843 5.6761 129.844 5.65952 129.844 5.64267C129.844 5.43791 129.762 5.24162 129.616 5.09682C129.47 4.95201 129.273 4.87048 129.067 4.87012Z" fill="#3E3E3E"/>
<path d="M128.205 13.0171C126.994 13.0171 125.81 12.6601 124.803 11.9914C123.797 11.3225 123.011 10.3719 122.548 9.2597C122.085 8.14751 121.964 6.92368 122.199 5.74298C122.436 4.56228 123.019 3.47774 123.875 2.62651C124.731 1.77527 125.823 1.19556 127.01 0.960707C128.198 0.725851 129.429 0.846386 130.548 1.30707C131.666 1.76776 132.622 2.54791 133.295 3.54886C133.968 4.54981 134.327 5.7266 134.327 6.93043C134.325 8.54414 133.68 10.0912 132.532 11.2323C131.384 12.3733 129.828 13.0152 128.205 13.0171ZM128.205 1.9462C127.213 1.94626 126.244 2.23863 125.419 2.78633C124.595 3.33404 123.952 4.11249 123.573 5.02324C123.194 5.934 123.094 6.93616 123.288 7.90298C123.481 8.86983 123.959 9.7579 124.66 10.4549C125.361 11.152 126.254 11.6266 127.227 11.8189C128.199 12.0112 129.208 11.9125 130.124 11.5352C131.04 11.158 131.823 10.5191 132.374 9.69953C132.924 8.87987 133.219 7.91621 133.219 6.93043C133.217 5.60901 132.688 4.34217 131.748 3.40783C130.808 2.47349 129.534 1.94794 128.205 1.94648V1.9462Z" fill="#3E3E3E"/>
</g>
<defs>
<clipPath id="clip0_27_5751">
<rect width="133.846" height="29" fill="white" transform="translate(0.482422 0.84375)"/>
</clipPath>
</defs>
</svg>
