<svg width="115" height="35" viewBox="0 0 115 35" fill="none" xmlns="http://www.w3.org/2000/svg">
<g clip-path="url(#clip0_27_5717)">
<path d="M41.4446 13.1406V13.5158C41.4446 13.3867 41.4446 13.2703 41.4316 13.1406H41.4446Z" fill="#3E3E3E"/>
<path d="M75.1223 1.12122V33.6207H65.4575C65.2118 33.6207 64.9786 33.608 64.7718 33.582C63.1544 33.4397 62.2358 32.6505 61.7958 29.4161C59.92 31.1369 57.8369 32.7412 55.1327 33.582L55.1198 33.595C55.0552 33.608 54.9904 33.6207 54.9128 33.6469C53.7355 33.9961 52.4288 34.203 50.9797 34.203C49.5692 34.203 48.2239 34.035 47.0076 33.6469C44.7952 32.9352 43.0744 31.4475 42.1558 28.8726C42.0783 28.9504 41.9489 29.0539 41.7676 29.2091C41.6642 29.3126 41.5478 29.4031 41.4441 29.5068C39.5939 31.1887 37.5368 32.754 34.8718 33.595C34.8069 33.608 34.7421 33.6207 34.6646 33.6469C33.4743 33.9961 32.1675 34.203 30.7314 34.203C29.3082 34.203 27.9626 34.035 26.7593 33.6469C23.5897 32.6375 21.3771 30.0759 21.1961 24.9267V13.5674C21.1961 13.4121 21.1961 13.2827 21.1831 13.1404C21.0538 11.1611 19.915 10.7341 17.5475 10.7341C16.5125 10.7341 15.4514 10.915 14.6621 11.0962V33.6469H0.921875V1.12122H10.6514C12.6826 1.12122 13.8602 1.79377 14.3388 5.67511C16.15 3.87705 18.3755 2.19514 21.1831 1.26357C21.3252 1.21171 21.4678 1.15985 21.6228 1.12122C22.9296 0.733089 24.3659 0.5 25.9314 0.5C27.3803 0.5 28.7259 0.681498 29.9163 1.12122C32.7626 2.13032 34.6906 4.54986 34.8588 9.25908V21.3819C34.8588 21.537 34.8588 21.6923 34.8718 21.8217C35.0271 23.9047 36.3076 24.3443 38.6755 24.3443C39.5939 24.3443 40.6551 24.1505 41.4441 23.9176V1.12122H55.1327V21.8992C55.2751 23.4906 56.1161 24.0856 57.6168 24.2668C58.0182 24.3187 58.4449 24.3443 58.9236 24.3443C59.8552 24.3443 60.9032 24.1505 61.7053 23.9176V1.12122H75.1223Z" fill="#3E3E3E"/>
<path d="M114.06 1.11621V33.6484H104.387C102.293 33.6484 101.183 33.0942 100.69 29.2124C97.9172 31.8002 94.6522 34.203 89.6616 34.203C84.3622 34.203 80.1113 31.9234 80.1113 24.2216V1.11621H93.7894V21.3873C93.7894 23.8518 95.0836 24.3447 97.6097 24.3447C98.534 24.3447 99.5813 24.1598 100.382 23.9136V1.11621H114.06Z" fill="#3E3E3E"/>
</g>
<defs>
<clipPath id="clip0_27_5717">
<rect width="113.748" height="33.7031" fill="white" transform="translate(0.921875 0.5)"/>
</clipPath>
</defs>
</svg>
