<svg width="140" height="40" viewBox="0 0 140 40" fill="none" xmlns="http://www.w3.org/2000/svg">
<path d="M40.4154 10.4358V12.4405C39.2632 10.9473 37.1311 9.92433 34.658 9.92433C28.8163 9.92433 24.4659 15.0841 24.4659 21.1412C24.4659 27.1984 28.7732 32.3581 34.658 32.3581C37.1311 32.3581 39.2632 31.3764 40.4154 29.7989V31.8036H47.7073V10.4358H40.4154ZM50.2253 0.96875V31.8018H57.7738V20.4144C57.7738 18.1961 58.8399 16.8752 60.5466 16.8752C62.2534 16.8752 63.149 18.0274 63.149 20.1595V31.8018H70.6975V18.3684C70.6975 13.1656 67.8834 9.92433 63.3625 9.92433C60.9325 9.92433 59.0552 10.863 57.7325 12.5266V0.96875H50.2271H50.2253ZM119.269 21.1412C119.269 27.5376 114.364 32.3581 107.841 32.3581C101.317 32.3581 96.412 27.5394 96.412 21.1412C96.412 14.7431 101.317 9.92433 107.841 9.92433C114.364 9.92433 119.269 14.7431 119.269 21.1412ZM95.1306 21.1412C95.1306 27.5376 90.2257 32.3581 83.7019 32.3581C77.1782 32.3581 72.2732 27.5394 72.2732 21.1412C72.2732 14.7431 77.1782 9.92433 83.7019 9.92433C90.2257 9.92433 95.1306 14.7431 95.1306 21.1412ZM0.0722656 10.4358L9.19834 31.9723L5.91403 39.7344H13.931L26.0865 10.4358H18.1108L13.1646 22.9736L8.25971 10.4358H0.0722656ZM36.1943 25.5329C33.6781 25.5329 31.7596 23.6143 31.7596 21.1394C31.7596 18.6645 33.6781 16.746 36.1943 16.746C38.7105 16.746 40.5877 18.6645 40.5877 21.1394C40.5877 23.6143 38.6692 25.5329 36.1943 25.5329ZM87.9679 21.1394C87.9679 18.7507 86.1768 16.8321 83.7037 16.8321C81.2306 16.8321 79.4395 18.7507 79.4395 21.1394C79.4395 23.5282 81.2306 25.4467 83.7037 25.4467C86.1768 25.4467 87.9679 23.5282 87.9679 21.1394ZM112.107 21.1394C112.107 18.7507 110.316 16.8321 107.842 16.8321C105.369 16.8321 103.578 18.7507 103.578 21.1394C103.578 23.5282 105.369 25.4467 107.842 25.4467C110.316 25.4467 112.107 23.5282 112.107 21.1394ZM120.21 27.2809C120.21 29.9676 122.299 32.1858 125.115 32.1858C127.931 32.1858 130.19 29.8832 130.19 27.1104C130.19 24.3376 128.101 22.2055 125.285 22.2055C122.469 22.2055 120.21 24.5512 120.21 27.2809ZM130.955 0.96875L122.938 20.33H131.893L139.91 0.96875H130.955Z" fill="#3E3E3E"/>
</svg>
