<svg width="113" height="31" viewBox="0 0 113 31" fill="none" xmlns="http://www.w3.org/2000/svg">
<g clip-path="url(#clip0_27_5907)">
<path d="M32.9431 8.52527H17.8494C17.7117 8.52551 17.5774 8.56801 17.4644 8.64708C17.3515 8.72615 17.2654 8.838 17.2176 8.96763L14.6939 15.6535C14.6454 15.7821 14.5591 15.8929 14.4464 15.9712C14.3337 16.0494 14.1999 16.0913 14.0629 16.0914H5.74372C5.60616 16.0917 5.47199 16.1342 5.35921 16.2133C5.24643 16.2924 5.16045 16.4042 5.1128 16.5338L3.47556 20.8689C3.43676 20.9716 3.42338 21.0822 3.43656 21.1913C3.44974 21.3003 3.48909 21.4046 3.55123 21.495C3.61337 21.5854 3.69645 21.6593 3.79332 21.7104C3.89019 21.7614 3.99796 21.7881 4.10737 21.7881H19.2011C19.3387 21.7878 19.4728 21.7453 19.5856 21.6662C19.6984 21.5872 19.7844 21.4753 19.832 21.3458L22.3575 14.659C22.406 14.5302 22.4925 14.4193 22.6053 14.3411C22.7182 14.2629 22.8521 14.221 22.9893 14.2211H31.3059C31.4429 14.2211 31.5767 14.1794 31.6895 14.1013C31.8024 14.0233 31.8889 13.9126 31.9377 13.784L33.5749 9.44892C33.6146 9.34597 33.6287 9.23486 33.616 9.12521C33.6032 9.01556 33.564 8.91068 33.5018 8.81968C33.4395 8.72868 33.3561 8.6543 33.2588 8.603C33.1614 8.55169 33.0531 8.52501 32.9431 8.52527Z" fill="#141414"/>
<path d="M30.0936 16.087H24.2452C24.1076 16.0874 23.9733 16.1299 23.8604 16.209C23.7475 16.288 23.6614 16.3998 23.6134 16.5294L21.0906 23.2099C21.0427 23.3395 20.9565 23.4513 20.8436 23.5303C20.7307 23.6094 20.5965 23.6519 20.4588 23.6523H2.88985C2.75295 23.6523 2.61929 23.6941 2.5066 23.7722C2.39392 23.8502 2.30754 23.9608 2.25892 24.0893L0.497448 28.7483C0.458455 28.8509 0.444896 28.9615 0.457938 29.0706C0.47098 29.1797 0.510233 29.2839 0.572316 29.3744C0.634399 29.4648 0.71745 29.5388 0.814318 29.5898C0.911185 29.6409 1.01897 29.6676 1.12837 29.6675H25.4736C25.6111 29.6671 25.7453 29.6245 25.858 29.5455C25.9708 29.4664 26.0568 29.3546 26.1045 29.2252L30.721 17.0045C30.7594 16.9022 30.7725 16.7922 30.7594 16.6837C30.7462 16.5752 30.7072 16.4716 30.6456 16.3815C30.584 16.2914 30.5017 16.2176 30.4056 16.1663C30.3095 16.1151 30.2025 16.0879 30.0936 16.087Z" fill="#141414"/>
<path d="M35.9239 0.640625H11.5786C11.4417 0.640763 11.3081 0.682623 11.1955 0.760665C11.0828 0.838707 10.9964 0.949254 10.9477 1.07768L6.33207 13.2983C6.29326 13.4009 6.27984 13.5114 6.29297 13.6204C6.3061 13.7293 6.34538 13.8335 6.40744 13.9238C6.46951 14.0141 6.55249 14.088 6.64926 14.139C6.74603 14.19 6.85369 14.2167 6.96299 14.2167H12.807C12.9443 14.217 13.0784 14.1752 13.1914 14.0969C13.3045 14.0187 13.3911 13.9077 13.4397 13.7787L15.9634 7.09379C16.0118 6.96513 16.0981 6.85433 16.2108 6.7761C16.3235 6.69789 16.4573 6.65595 16.5943 6.65587H34.1624C34.2994 6.65603 34.4333 6.6143 34.5462 6.53622C34.659 6.45815 34.7455 6.34745 34.7942 6.2188L36.5566 1.55897C36.5952 1.45623 36.6084 1.34562 36.5951 1.23662C36.5818 1.12762 36.5423 1.02349 36.4801 0.933175C36.4179 0.84286 36.3348 0.769056 36.2379 0.7181C36.141 0.667143 36.0332 0.640558 35.9239 0.640625Z" fill="#141414"/>
<path d="M42.1949 25.1884V25.0676H45.2566V25.4297C45.2566 26.677 45.8903 27.1798 48.6764 27.1798C51.1265 27.1798 51.6938 26.8177 51.6938 25.9125C51.6938 25.0878 51.2231 24.786 49.815 24.5446L45.9768 24.0015C43.5266 23.6193 42.0762 22.4123 42.0762 20.2196C42.0762 18.1859 43.7499 16.0536 48.3445 16.0536C52.5508 16.0536 54.5121 17.9646 54.5121 20.803V20.9237H51.4243V20.6401C51.4243 19.3526 50.7504 18.8095 48.0347 18.8095C45.8219 18.8095 45.156 19.2319 45.156 20.0969C45.156 20.8835 45.6046 21.1651 46.7472 21.3663L50.5874 21.9698C53.6491 22.4526 54.7515 23.921 54.7515 25.7717C54.7515 27.9644 53.0175 29.9358 48.6683 29.9358C44.5224 29.9358 42.1949 28.3265 42.1949 25.1884Z" fill="#141414"/>
<path d="M55.8965 24.102V16.2567H58.9581V23.8828C58.9581 26.176 59.8372 27.0008 62.6133 27.0008C65.3893 27.0008 66.2684 26.176 66.2684 23.8828V16.2567H69.3301V24.102C69.3301 27.7229 67.0851 29.9357 62.6133 29.9357C58.1414 29.9357 55.8965 27.7229 55.8965 24.102Z" fill="#141414"/>
<path d="M70.8828 29.7345V16.2567H82.4597V18.9824H73.9445V21.6177H82.1519V24.3132H73.9445V27.0289H82.4597V29.7446L70.8828 29.7345Z" fill="#141414"/>
<path d="M83.8477 29.7345V16.2567H91.4014C94.7708 16.2567 96.6899 17.7252 96.6899 20.3001C96.6899 22.4947 95.4045 23.8023 92.8316 24.0437V24.2046C94.0567 24.5265 94.5254 25.1702 95.0444 26.1156L97.0259 29.7366H93.4633L91.5864 26.2364C91.0352 25.1903 90.5243 24.8483 88.9311 24.8483H86.9195V29.7366L83.8477 29.7345ZM86.9094 22.5732H91.3813C92.8316 22.5732 93.4854 22.1709 93.4854 20.7627C93.4854 19.4331 92.8316 18.9724 91.3813 18.9724H86.9094V22.5732Z" fill="#141414"/>
<path d="M97.668 23.0057C97.668 18.7994 100.484 16.0636 105.018 16.0636C109.645 16.0636 112.451 18.7994 112.451 23.0057C112.451 27.212 109.653 29.9458 105.018 29.9458C100.486 29.9357 97.668 27.1999 97.668 23.0057ZM109.184 23.0057C109.184 20.0064 108.02 18.9603 105.018 18.9603C102.017 18.9603 100.915 20.0064 100.915 23.0057C100.915 26.005 102.017 27.0491 105.018 27.0491C108.02 27.0491 109.184 25.9929 109.184 23.0057Z" fill="#141414"/>
<path d="M42.2793 14.1211V0.643311H53.6852V3.35899H45.2967V5.9962H53.3834V8.6918H45.2967V11.4075H53.6852V14.1232L42.2793 14.1211Z" fill="#141414"/>
<path d="M59.5314 14.1205V3.35631H54.5205V0.640625H67.5578V3.35631H62.5489V14.1205H59.5314Z" fill="#141414"/>
<path d="M68.6416 14.1204V0.642578H71.659V5.99547H78.6997V0.642578H81.7171V14.1204H78.6997V8.70914H71.659V14.1204H68.6416Z" fill="#141414"/>
<path d="M82.4219 14.1204L88.3179 0.642578H92.6228L98.5571 14.1204H95.0971L93.8298 11.1432H87.0908L85.8014 14.1204H82.4219ZM88.2556 8.42754H92.661L91.3937 5.49055L90.5689 3.39648H90.3577L89.533 5.49055L88.2556 8.42754Z" fill="#141414"/>
<path d="M99.2598 14.1204V0.642578H102.478L107.306 7.02142L109.157 9.85777H109.378L109.237 7.14209V0.642578H112.255V14.1204H109.036L104.065 7.68325L102.356 5.14858H102.154L102.275 7.62289V14.1204H99.2598Z" fill="#141414"/>
</g>
<defs>
<clipPath id="clip0_27_5907">
<rect width="112" height="30" fill="white" transform="translate(0.453125 0.640625)"/>
</clipPath>
</defs>
</svg>
